<svg viewBox="0 0 400 400" xmlns="http://www.w3.org/2000/svg">
  <g stroke="#C9A84C" stroke-width="0.8" fill="none">
    <circle cx="200" cy="200" r="180"/>
    <circle cx="200" cy="200" r="140"/>
    <circle cx="200" cy="200" r="100"/>
    <circle cx="200" cy="200" r="60"/>
    <circle cx="200" cy="200" r="20"/>
    <polygon points="200,20 224,92 296,92 240,136 264,208 200,168 136,208 160,136 104,92 176,92"/>
    <polygon points="200,60 218,110 268,110 228,138 246,188 200,162 154,188 172,138 132,110 182,110"/>
    <polygon points="200,100 212,132 244,132 220,150 232,182 200,164 168,182 180,150 156,132 188,132"/>
    <line x1="200" y1="20" x2="200" y2="380"/>
    <line x1="20" y1="200" x2="380" y2="200"/>
    <line x1="73" y1="73" x2="327" y2="327"/>
    <line x1="327" y1="73" x2="73" y2="327"/>
    <line x1="200" y1="20" x2="380" y2="200"/>
    <line x1="380" y1="200" x2="200" y2="380"/>
    <line x1="200" y1="380" x2="20" y2="200"/>
    <line x1="20" y1="200" x2="200" y2="20"/>
    <polygon points="200,185 205,195 215,200 205,205 200,215 195,205 185,200 195,195"/>
  </g>
</svg>
